<svg id="svg" xmlns="http://www.w3.org/2000/svg" xmlns:xlink="http://www.w3.org/1999/xlink" width="400" height="300" viewBox="0, 0, 400,300"><g id="svgg"><path id="path0" d="M155.875 22.272 C 140.502 22.817,132.114 23.784,124.250 25.918 C 95.107 33.826,77.046 55.789,73.402 87.750 C 71.363 105.634,71.363 194.366,73.402 212.250 C 77.337 246.763,98.094 269.550,131.125 275.616 C 142.077 277.628,152.833 278.000,200.000 278.000 C 247.167 278.000,257.923 277.628,268.875 275.616 C 301.906 269.550,322.663 246.763,326.598 212.250 C 328.637 194.366,328.637 105.634,326.598 87.750 C 322.720 53.733,302.490 31.079,270.250 24.650 C 263.673 23.339,256.822 22.735,243.000 22.250 C 234.778 21.962,164.129 21.980,155.875 22.272 M236.375 45.248 C 253.431 45.667,260.569 46.226,267.000 47.650 C 288.238 52.351,300.538 66.547,303.477 89.750 C 305.617 106.640,305.617 193.360,303.477 210.250 C 300.231 235.879,285.903 250.209,260.250 253.481 C 243.522 255.614,156.478 255.614,139.750 253.481 C 114.097 250.209,99.769 235.879,96.523 210.250 C 94.383 193.360,94.383 106.640,96.523 89.750 C 99.769 64.121,114.115 49.775,139.750 46.522 C 150.196 45.196,204.855 44.476,236.375 45.248 M265.759 66.529 C 253.368 68.398,248.433 83.730,257.352 92.648 C 267.080 102.377,283.517 95.628,283.587 81.875 C 283.635 72.274,275.291 65.092,265.759 66.529 M192.250 84.650 C 142.537 90.640,117.358 147.909,146.591 188.500 C 176.430 229.932,240.917 222.679,260.609 175.676 C 280.108 129.136,242.180 78.633,192.250 84.650 M203.500 107.514 C 239.671 110.820,255.701 154.609,230.079 180.119 C 204.301 205.783,160.726 189.616,157.491 153.188 C 155.218 127.598,177.814 105.167,203.500 107.514 " stroke="none" fill="#000000" fill-rule="evenodd"></path></g></svg>