<svg width="30" height="30" viewBox="0 0 30 30" fill="none" xmlns="http://www.w3.org/2000/svg">
<path fill-rule="evenodd" clip-rule="evenodd" d="M2.86886 0.0673828C1.52929 0.0673828 0.443359 1.15331 0.443359 2.49288V26.7479C0.443359 28.0874 1.52929 29.1734 2.86886 29.1734H27.1239C28.4634 29.1734 29.5494 28.0874 29.5494 26.7479V2.49288C29.5494 1.15331 28.4634 0.0673828 27.1239 0.0673828H2.86886ZM9.37043 6.53978C9.37953 8.08604 8.22211 9.03881 6.84867 9.03198C5.55481 9.02516 4.42695 7.99508 4.43378 6.54206C4.4406 5.17544 5.52071 4.07714 6.92371 4.10898C8.34717 4.14082 9.37953 5.18454 9.37043 6.53978ZM15.4486 11.0011H11.3738H11.3715V24.8424H15.6782V24.5195C15.6782 23.9052 15.6778 23.2907 15.6773 22.6761C15.676 21.0368 15.6745 19.3957 15.6829 17.7569C15.6852 17.3589 15.7033 16.9451 15.8057 16.5653C16.1899 15.1464 17.4657 14.23 18.8891 14.4553C19.8032 14.5984 20.408 15.1283 20.6626 15.9901C20.8197 16.5289 20.8902 17.1088 20.897 17.6705C20.9154 19.3645 20.9128 21.0585 20.9102 22.7526C20.9092 23.3506 20.9083 23.9489 20.9083 24.5468V24.8401H25.2287V24.5082C25.2287 23.7773 25.2284 23.0466 25.2279 22.3158C25.2271 20.4894 25.2261 18.663 25.231 16.836C25.2333 16.0105 25.1447 15.1965 24.9422 14.3984C24.6398 13.2113 24.0145 12.229 22.9981 11.5196C22.2772 11.0148 21.4859 10.6896 20.6014 10.6532C20.5006 10.649 20.3991 10.6436 20.297 10.6381C19.8448 10.6136 19.3851 10.5888 18.9527 10.676C17.7157 10.9238 16.6289 11.49 15.8079 12.4882C15.7125 12.6027 15.6192 12.719 15.48 12.8925L15.4486 12.9317V11.0011ZM4.77957 24.8469H9.06588V11.0102H4.77957V24.8469Z" fill="black"/>
</svg>
