<svg id="svg" xmlns="http://www.w3.org/2000/svg" xmlns:xlink="http://www.w3.org/1999/xlink" width="400" height="317.28395061728395" viewBox="0, 0, 400,317.28395061728395"><g id="svgg"><path id="path0" d="M67.531 60.759 C 59.790 60.854,47.531 60.999,40.289 61.081 C 33.046 61.163,27.011 61.298,26.877 61.380 C 26.365 61.697,26.722 82.690,27.248 83.166 C 27.671 83.549,29.826 83.580,55.520 83.580 L 83.333 83.580 84.449 85.802 C 85.063 87.025,85.881 88.732,86.267 89.597 C 86.652 90.463,87.718 92.740,88.635 94.659 C 89.552 96.578,90.664 98.926,91.106 99.877 C 91.548 100.827,92.386 102.605,92.968 103.827 C 93.550 105.049,94.358 106.772,94.763 107.654 C 95.168 108.537,96.913 112.259,98.642 115.926 C 100.371 119.593,102.148 123.370,102.592 124.321 C 103.035 125.272,103.843 126.994,104.386 128.148 C 105.637 130.804,107.200 134.128,108.392 136.667 C 108.902 137.753,109.945 139.954,110.709 141.558 C 111.473 143.161,112.099 144.511,112.099 144.557 C 112.099 144.603,113.099 146.719,114.321 149.259 C 115.543 151.800,116.543 153.911,116.543 153.951 C 116.543 153.991,117.166 155.340,117.927 156.950 C 118.688 158.560,119.674 160.654,120.117 161.605 C 120.561 162.556,121.396 164.333,121.972 165.556 C 122.549 166.778,123.353 168.500,123.760 169.383 C 125.008 172.093,125.594 173.352,126.925 176.173 C 129.383 181.384,129.366 181.313,128.329 181.958 C 127.684 182.359,123.285 185.890,121.854 187.154 C 117.747 190.783,113.234 195.588,110.474 199.272 C 107.649 203.042,107.131 203.874,105.337 207.531 C 103.824 210.614,103.185 212.589,101.964 217.949 C 100.266 225.406,104.455 233.977,111.650 237.771 L 113.643 238.822 121.698 238.689 C 131.210 238.532,129.544 238.821,131.559 236.975 C 132.486 236.127,133.903 234.935,134.708 234.327 C 137.513 232.209,137.436 232.356,137.651 228.742 C 138.040 222.219,137.969 221.990,135.137 220.604 C 134.402 220.245,133.330 219.592,132.757 219.154 C 131.316 218.055,130.992 217.981,126.790 217.808 L 123.086 217.654 123.166 216.914 C 123.771 211.303,139.171 195.721,153.968 185.746 C 155.181 184.929,156.385 184.024,156.643 183.735 L 157.114 183.210 191.088 183.218 C 209.773 183.223,231.728 183.330,239.877 183.456 C 265.673 183.856,299.026 183.796,299.474 183.348 C 299.680 183.142,300.092 182.332,300.389 181.548 C 300.859 180.306,302.759 175.926,304.407 172.284 C 304.959 171.065,305.632 169.557,306.474 167.654 C 306.744 167.043,307.275 165.877,307.654 165.062 C 308.034 164.247,308.589 163.025,308.889 162.346 C 309.189 161.667,309.582 160.778,309.763 160.370 C 309.943 159.963,310.543 158.646,311.095 157.445 C 311.647 156.243,312.099 155.218,312.099 155.167 C 312.099 155.116,312.444 154.321,312.866 153.401 C 313.287 152.481,315.221 148.173,317.162 143.827 C 319.103 139.481,320.967 135.315,321.305 134.568 C 321.643 133.821,322.155 132.682,322.441 132.037 C 322.728 131.392,323.198 130.336,323.484 129.691 C 323.771 129.046,324.285 127.907,324.626 127.160 C 324.967 126.414,325.441 125.358,325.679 124.815 C 325.917 124.272,326.391 123.216,326.732 122.469 C 327.073 121.722,327.587 120.583,327.874 119.938 C 328.160 119.293,328.630 118.238,328.917 117.593 C 329.203 116.948,329.716 115.809,330.057 115.062 C 330.397 114.315,331.314 112.259,332.095 110.494 C 333.930 106.344,337.417 98.576,339.686 93.580 C 340.025 92.833,340.961 90.722,341.765 88.889 C 342.569 87.056,343.474 85.063,343.774 84.461 C 344.568 82.874,344.485 81.333,343.565 80.541 L 342.858 79.933 244.083 80.091 C 189.757 80.177,136.966 80.318,126.770 80.403 L 108.232 80.559 107.668 79.107 C 107.358 78.308,106.961 77.321,106.786 76.914 C 106.334 75.864,101.798 64.643,101.046 62.716 C 100.702 61.833,100.310 60.970,100.175 60.797 C 99.905 60.450,93.293 60.442,67.531 60.759 M314.568 99.102 C 314.568 99.287,314.227 100.203,313.811 101.139 C 312.283 104.575,311.847 105.563,310.123 109.506 C 309.411 111.136,308.607 112.969,308.337 113.580 C 307.464 115.553,306.981 116.642,306.448 117.840 C 306.161 118.485,305.704 119.512,305.432 120.123 C 305.160 120.735,304.728 121.707,304.470 122.284 C 304.213 122.861,302.657 126.415,301.013 130.181 C 298.370 136.236,294.655 144.692,293.717 146.790 C 293.096 148.177,292.294 149.998,291.949 150.802 C 291.018 152.972,290.756 153.567,290.122 154.938 C 289.521 156.241,288.671 158.176,286.218 163.827 C 285.354 165.818,285.619 165.734,280.741 165.554 C 276.648 165.403,250.258 165.191,178.347 164.730 C 153.281 164.569,146.615 164.462,146.314 164.212 C 146.105 164.039,144.971 161.937,143.793 159.541 C 140.172 152.173,134.885 141.382,132.102 135.679 C 127.982 127.233,124.789 120.720,119.471 109.909 C 115.123 101.069,114.386 99.438,114.630 99.198 C 114.664 99.165,150.136 99.081,193.457 99.013 C 236.778 98.944,281.750 98.860,293.395 98.826 C 311.125 98.775,314.568 98.820,314.568 99.102 M159.145 194.310 C 158.769 194.726,158.690 195.467,158.577 199.640 L 158.445 204.487 157.556 204.869 C 155.203 205.878,153.316 206.870,151.866 207.862 C 150.613 208.720,150.194 208.894,149.891 208.683 C 149.545 208.442,147.656 207.345,145.494 206.130 C 145.052 205.882,144.275 205.445,143.765 205.159 C 143.256 204.873,142.728 204.556,142.593 204.454 C 140.458 202.857,139.286 203.701,136.258 209.012 C 133.263 214.268,133.265 214.262,133.803 215.866 C 134.076 216.681,135.810 218.272,136.426 218.272 C 136.516 218.272,137.867 218.895,139.429 219.658 L 142.269 221.044 142.120 222.065 C 141.556 225.946,141.776 231.247,142.589 233.359 C 142.734 233.737,140.049 235.814,135.886 238.543 C 133.408 240.168,133.440 241.575,136.029 244.751 C 136.944 245.872,138.153 247.474,138.716 248.310 C 141.104 251.855,142.601 251.785,147.425 247.898 C 150.083 245.756,150.677 245.423,150.974 245.904 C 151.464 246.696,156.406 249.403,158.883 250.236 C 160.809 250.884,160.741 250.702,160.741 255.196 C 160.741 261.252,160.781 261.283,168.167 260.989 C 175.151 260.712,175.649 260.441,175.103 257.226 C 174.959 256.375,174.784 254.537,174.714 253.141 L 174.588 250.604 176.738 249.611 C 177.921 249.065,179.563 248.179,180.388 247.642 C 182.389 246.339,181.703 246.128,188.404 250.115 C 191.159 251.753,191.538 251.738,192.816 249.938 C 197.547 243.276,197.903 242.665,197.868 241.272 C 197.819 239.279,197.605 239.065,193.631 237.028 C 190.717 235.534,190.009 235.071,190.043 234.682 C 190.067 234.416,190.233 233.364,190.412 232.346 C 190.782 230.246,190.839 227.081,190.537 225.432 L 190.334 224.321 192.142 223.404 C 198.298 220.283,198.765 219.896,198.765 217.924 C 198.765 216.540,198.674 216.247,197.940 215.282 C 196.974 214.013,194.511 210.219,193.956 209.146 C 192.910 207.123,191.544 207.226,187.561 209.630 C 183.913 211.831,183.965 211.813,183.310 211.073 C 181.670 209.218,177.101 206.454,173.580 205.189 L 171.728 204.523 171.605 200.017 C 171.443 194.090,171.885 194.511,165.407 194.114 C 159.384 193.746,159.664 193.737,159.145 194.310 M269.566 195.870 C 269.068 196.256,267.185 200.058,266.297 202.469 C 265.364 205.003,265.493 204.923,262.088 205.062 C 260.464 205.129,258.414 205.345,257.531 205.543 L 255.926 205.902 255.432 205.238 C 249.130 196.767,248.623 196.423,245.654 198.587 C 236.730 205.090,236.348 205.893,240.221 210.002 C 241.118 210.953,242.292 212.271,242.830 212.931 L 243.809 214.130 243.227 215.151 C 242.907 215.713,242.311 216.772,241.902 217.504 C 241.205 218.754,239.894 222.921,239.541 225.009 C 239.348 226.150,237.118 227.044,232.049 228.015 C 227.994 228.791,227.934 229.006,229.765 236.180 C 231.107 241.435,230.773 240.835,232.712 241.480 L 234.307 242.011 237.709 241.032 C 239.580 240.493,241.303 239.974,241.538 239.879 C 241.866 239.744,242.121 239.970,242.649 240.861 C 243.742 242.708,245.964 245.430,247.736 247.094 C 249.160 248.432,249.346 248.706,249.158 249.193 C 249.040 249.501,248.546 250.708,248.062 251.875 C 245.940 256.985,246.039 258.502,248.551 259.440 C 248.941 259.585,250.593 260.209,252.222 260.825 C 258.307 263.128,260.240 263.036,260.246 260.445 C 260.247 259.787,262.274 253.971,262.572 253.769 C 262.719 253.669,263.840 253.584,265.062 253.580 C 266.284 253.575,268.062 253.407,269.012 253.206 C 269.963 253.004,270.810 252.840,270.895 252.840 C 270.981 252.840,272.361 254.572,273.964 256.689 C 277.137 260.883,277.706 261.337,278.752 260.517 C 279.099 260.245,279.830 259.797,280.377 259.522 C 282.342 258.533,287.040 255.165,287.347 254.525 C 287.517 254.169,287.724 253.388,287.806 252.788 C 287.970 251.593,288.212 251.968,284.599 247.804 C 282.395 245.264,282.400 245.278,283.297 244.097 C 284.310 242.766,285.903 239.534,286.452 237.698 C 287.140 235.398,287.138 235.399,288.933 235.335 C 289.775 235.304,290.534 235.237,290.619 235.184 C 290.703 235.132,291.925 234.971,293.334 234.827 C 297.695 234.379,298.045 233.606,296.812 227.146 C 295.788 221.778,295.659 221.352,294.871 220.730 C 294.131 220.147,294.010 220.149,290.000 220.842 C 286.085 221.518,286.089 221.520,285.072 219.493 C 283.667 216.693,282.303 214.852,279.725 212.273 C 278.019 210.567,277.347 209.731,277.442 209.434 C 277.627 208.851,277.845 208.344,278.965 205.896 C 280.876 201.716,280.822 200.343,278.710 199.492 C 278.265 199.313,276.380 198.423,274.520 197.515 C 270.667 195.632,270.109 195.447,269.566 195.870 M170.490 214.454 C 180.003 216.932,182.903 228.929,175.721 236.097 C 167.194 244.607,152.785 239.312,152.748 227.654 C 152.719 218.764,161.618 212.143,170.490 214.454 M269.054 216.823 C 282.765 222.531,278.438 241.843,263.457 241.807 C 251.912 241.779,245.844 228.938,253.341 220.399 C 257.002 216.230,263.872 214.666,269.054 216.823 M231.975 217.573 C 231.160 217.700,224.665 217.880,217.541 217.975 L 204.588 218.148 204.435 218.889 C 203.852 221.718,201.436 224.306,196.914 226.945 L 195.432 227.810 195.432 230.129 L 195.432 232.448 197.145 233.323 C 199.376 234.463,201.770 236.692,202.614 238.416 L 203.268 239.753 214.350 239.753 C 226.692 239.753,225.785 239.889,225.191 238.123 C 223.914 234.324,223.560 226.922,224.597 225.689 C 225.614 224.481,227.972 223.619,231.688 223.098 C 234.909 222.646,234.827 222.685,235.755 221.153 C 237.645 218.035,236.430 216.884,231.975 217.573 M299.840 218.154 C 299.761 218.361,299.885 219.277,300.115 220.191 C 300.866 223.167,301.987 229.216,302.138 231.112 L 302.286 232.964 301.154 234.829 C 299.802 237.055,299.349 237.499,298.104 237.814 C 297.585 237.945,296.736 238.160,296.216 238.291 C 295.697 238.422,294.332 238.625,293.182 238.741 C 290.675 238.995,290.062 239.400,290.173 240.728 L 290.247 241.605 293.580 241.589 C 295.414 241.580,299.618 241.479,302.922 241.364 L 308.931 241.155 309.190 240.516 C 309.643 239.399,309.892 219.998,309.463 219.309 C 308.545 217.838,300.340 216.852,299.840 218.154 " stroke="none" fill="#000000" fill-rule="evenodd"></path></g></svg>